Coordinates
version=1
nRows=14
nColumns=46
inDegrees=yes

Units are S.I. units (second, meters, Newtons, ...)
Angles are in degrees.

endheader
time	pelvis_tilt	pelvis_list	pelvis_rotation	pelvis_tx	pelvis_ty	pelvis_tz	bb_angle	bb_tx	bb_ty	bb_tz	hip_flexion_r	hip_adduction_r	hip_rotation_r	knee_angle_r	knee_angle_r_beta	ankle_angle_r	subtalar_angle_r	mtp_angle_r	crank_angle_r	hip_flexion_l	hip_adduction_l	hip_rotation_l	knee_angle_l	knee_angle_l_beta	ankle_angle_l	subtalar_angle_l	mtp_angle_l	crank_angle_l	lumbar_extension	lumbar_bending	lumbar_rotation	arm_flex_r	arm_add_r	arm_rot_r	elbow_flex_r	pro_sup_r	wrist_flex_r	wrist_dev_r	arm_flex_l	arm_add_l	arm_rot_l	elbow_flex_l	pro_sup_l	wrist_flex_l	wrist_dev_l
      0.00500000	     -7.18980810	     -3.42123817	     -2.78894165	      0.18462744	      1.05018862	     -0.30790572	      0.00000000	      0.50000000	      0.00000000	      0.25000000	     80.80336670	     -1.33020105	      1.35068714	     99.61998286	      1.73869670	     20.22549362	     -5.64591801	      0.00000000	      0.00000000	     41.10669667	    -12.41301889	     -2.37756782	     65.60584151	      1.14503794	     -9.58042439	     -7.98935398	      0.00000000	      0.00000000	    -57.79077594	     -0.68680322	      5.89617757	     89.64323503	     -1.61968569	     45.29457960	     12.94131261	     20.40131673	      0.00000000	      0.00000000	     89.33932594	      1.84151953	     36.65036299	     15.71493266	     23.13568875	      0.00000000	      0.00000000
      0.01000000	     -7.20137401	     -3.45067600	     -2.76857260	      0.18458514	      1.05017354	     -0.30792739	      0.00000000	      0.50000000	      0.00000000	      0.25000000	     80.80924549	     -1.33822392	      1.32004113	     99.60652733	      1.73846186	     20.20170107	     -5.66091405	      0.00000000	      0.00000000	     41.13717307	    -12.43221571	     -2.34191342	     65.61025316	      1.14511494	     -9.59288298	     -7.93644888	      0.00000000	      0.00000000	    -57.75767227	     -0.64785541	      5.89996241	     89.65058783	     -1.83875956	     48.76346101	     12.61627387	     18.68085373	      0.00000000	      0.00000000	     89.33333222	      1.53054623	     38.89220844	     15.69832159	     22.91327228	      0.00000000	      0.00000000
      0.01500000	     -7.18340124	     -3.40922049	     -2.77114478	      0.18460187	      1.05022801	     -0.30793801	      0.00000000	      0.50000000	      0.00000000	      0.25000000	     80.78997360	     -1.35228242	      1.36865870	     99.61136357	      1.73854627	     20.24772277	     -5.60682530	      0.00000000	      0.00000000	     41.09541432	    -12.39207793	     -2.38092741	     65.57966901	      1.14458115	     -9.62227872	     -7.99162585	      0.00000000	      0.00000000	    -57.79977023	     -0.68186071	      5.89255357	     89.64422885	     -1.79165712	     46.81529549	     13.08826523	     19.17672133	      0.00000000	      0.00000000	     89.33801733	      1.70145455	     37.78412034	     15.71823006	     23.17604847	      0.00000000	      0.00000000
      0.02000000	     -7.31432937	     -3.45949784	     -3.00890347	      0.18483059	      1.05027332	     -0.30807248	      0.00000000	      0.50000000	      0.00000000	      0.25000000	     80.80797300	     -1.11858309	      1.37924766	     99.51442948	      1.73685445	     20.42127618	     -5.54398832	      0.00000000	      0.00000000	     41.14645285	    -12.57183981	     -2.55524655	     65.55501273	      1.14415081	     -9.61076749	     -8.01635041	      0.00000000	      0.00000000	    -57.69798994	     -0.78313695	      6.08476293	     89.64200612	     -1.67885044	     45.36706768	     13.10380403	     20.01355319	      0.00000000	      0.00000000	     89.32451223	      1.91562778	     36.70957492	     15.51864919	     23.99458139	      0.00000000	      0.00000000
      0.02500000	     -7.32073555	     -3.50128908	     -3.02078810	      0.18473063	      1.05051086	     -0.30789786	      0.00000000	      0.50000000	      0.00000000	      0.25000000	     80.83422881	     -1.15503840	      1.30078907	     99.54327011	      1.73735781	     20.37430245	     -5.54721960	      0.00000000	      0.00000000	     41.14909261	    -12.61259419	     -2.51309793	     65.51291377	      1.14341605	     -9.68219782	     -7.98310292	      0.00000000	      0.00000000	    -57.70270824	     -0.72294391	      6.07240505	     89.63879791	     -1.42104964	     43.23020146	     13.17868805	     20.86693873	      0.00000000	      0.00000000	     89.31812647	      2.06333482	     35.14586527	     15.33631049	     24.79619848	      0.00000000	      0.00000000
      0.03000000	     -7.08357958	     -3.53521605	     -3.05310801	      0.18465929	      1.05099378	     -0.30780858	      0.00000000	      0.50000000	      0.00000000	      0.25000000	     80.57066630	     -1.11473509	      1.26141816	     99.53936610	      1.73728967	     20.31069383	     -5.56513785	      0.00000000	      0.00000000	     40.86115008	    -12.67595346	     -2.58839956	     65.44394297	      1.14221228	     -9.86278571	     -8.17682242	      0.00000000	      0.00000000	    -58.05434012	     -0.74938516	      6.20791402	     89.63355403	     -1.70602560	     41.54702967	     14.25795221	     22.08883762	      0.00000000	      0.00000000	     89.29605253	      2.03015851	     33.92872225	     16.21580969	     25.92353869	      0.00000000	      0.00000000
      0.03500000	     -7.34624177	     -3.54901801	     -2.97657705	      0.18462177	      1.05045678	     -0.30783156	      0.00000000	      0.50000000	      0.00000000	      0.25000000	     80.88167721	     -1.18442475	      1.23238463	     99.57166202	      1.73785334	     20.28452501	     -5.65250060	      0.00000000	      0.00000000	     41.22409255	    -12.63202306	     -2.42344714	     65.52631052	      1.14364987	     -9.67752915	     -7.90044665	      0.00000000	      0.00000000	    -57.63077599	     -0.65794552	      6.09875267	     89.64860619	     -1.91409869	     48.85690801	     12.51735288	     19.17828211	      0.00000000	      0.00000000	     89.32233296	      1.59925415	     38.79853198	     15.18756384	     24.27234010	      0.00000000	      0.00000000
      0.04000000	     -7.31694277	     -3.54313445	     -2.99280079	      0.18463982	      1.05056082	     -0.30781854	      0.00000000	      0.50000000	      0.00000000	      0.25000000	     80.84205002	     -1.17876409	      1.23730184	     99.56972028	      1.73781945	     20.33879499	     -5.60995980	      0.00000000	      0.00000000	     41.18569275	    -12.64432119	     -2.45875285	     65.50750910	      1.14332172	     -9.78499630	     -7.94978349	      0.00000000	      0.00000000	    -57.69023489	     -0.66825137	      6.09233695	     89.64499983	     -1.82310525	     47.38740118	     12.88522341	     19.37356623	      0.00000000	      0.00000000	     89.32403932	      1.69453276	     37.92416848	     15.28411136	     24.18841423	      0.00000000	      0.00000000
      0.04500000	     -7.32193153	     -3.54613639	     -2.98863729	      0.18461654	      1.05056251	     -0.30780074	      0.00000000	      0.50000000	      0.00000000	      0.25000000	     80.84736380	     -1.17699917	      1.23251754	     99.56907369	      1.73780817	     20.34043360	     -5.65098818	      0.00000000	      0.00000000	     41.19893727	    -12.64876110	     -2.45130001	     65.50271745	      1.14323809	     -9.80059677	     -7.90967681	      0.00000000	      0.00000000	    -57.67502566	     -0.66753768	      6.08845323	     89.65030812	     -1.93784790	     49.35444526	     12.57177271	     18.71997721	      0.00000000	      0.00000000	     89.32368092	      1.55787380	     38.84352536	     15.28532217	     24.14353083	      0.00000000	      0.00000000
      0.05000000	     -7.06045940	     -3.40359162	     -3.04462456	      0.18463423	      1.05113762	     -0.30782711	      0.00000000	      0.50000000	      0.00000000	      0.25000000	     80.57741673	     -1.19312397	      1.37882205	     99.57387103	      1.73789190	     20.32331421	     -5.54860853	      0.00000000	      0.00000000	     40.81292974	    -12.53875084	     -2.66837677	     65.35813563	      1.14071466	    -10.02314913	     -8.21285731	      0.00000000	      0.00000000	    -58.04481053	     -0.86063312	      6.12048254	     89.63904031	     -2.18993718	     45.81077992	     13.89494064	     20.12923722	      0.00000000	      0.00000000	     89.31774666	      1.80020338	     36.67480244	     16.09508999	     25.05424117	      0.00000000	      0.00000000
      0.05500000	     -7.32290129	     -3.54489685	     -3.00146697	      0.18459624	      1.05058677	     -0.30777482	      0.00000000	      0.50000000	      0.00000000	      0.25000000	     80.85219084	     -1.16389028	      1.23542221	     99.57876110	      1.73797725	     20.33612136	     -5.65831743	      0.00000000	      0.00000000	     41.20677836	    -12.66208302	     -2.46201082	     65.49547423	      1.14311167	     -9.85355962	     -7.89836323	      0.00000000	      0.00000000	    -57.67859501	     -0.67465770	      6.10415810	     89.65035415	     -1.93954858	     49.20128897	     12.64815406	     18.46170259	      0.00000000	      0.00000000	     89.32058417	      1.59916862	     38.65316759	     15.41873465	     23.46459586	      0.00000000	      0.00000000
      0.06000000	     -7.29381538	     -3.47890881	     -3.00538571	      0.18460214	      1.05067021	     -0.30779252	      0.00000000	      0.50000000	      0.00000000	      0.25000000	     80.83526800	     -1.18890756	      1.30707095	     99.59325595	      1.73823023	     20.36268957	     -5.58694301	      0.00000000	      0.00000000	     41.14829198	    -12.59530005	     -2.50899196	     65.45442015	      1.14239514	     -9.89441488	     -7.94771268	      0.00000000	      0.00000000	    -57.73238758	     -0.72825997	      6.07265768	     89.64436517	     -1.90257498	     47.27520893	     13.11822693	     19.03065868	      0.00000000	      0.00000000	     89.32717436	      1.76078514	     37.61254371	     15.46402444	     23.66005302	      0.00000000	      0.00000000
      0.06500000	     -7.25673255	     -3.44600880	     -3.01372348	      0.18460201	      1.05077349	     -0.30779655	      0.00000000	      0.50000000	      0.00000000	      0.25000000	     80.80081819	     -1.19052336	      1.34322827	     99.59630640	      1.73828347	     20.36759087	     -5.59519700	      0.00000000	      0.00000000	     41.08723311	    -12.56462099	     -2.53773830	     65.42120496	      1.14181543	     -9.92658524	     -7.97516005	      0.00000000	      0.00000000	    -57.79991306	     -0.76817978	      6.06935550	     89.63830534	     -1.75475112	     44.79235639	     13.50689054	     19.62463756	      0.00000000	      0.00000000	     89.32952891	      1.95525925	     36.21658863	     15.55167394	     23.93602098	      0.00000000	      0.00000000
      0.07000000	     -7.30132254	     -3.54526165	     -3.02062250	      0.18458137	      1.05067198	     -0.30776837	      0.00000000	      0.50000000	      0.00000000	      0.25000000	     80.83558370	     -1.14534902	      1.22968086	     99.57906770	      1.73798260	     20.30540596	     -5.71843357	      0.00000000	      0.00000000	     41.17640130	    -12.67715019	     -2.47949352	     65.47879679	      1.14282059	     -9.86271309	     -7.86442525	      0.00000000	      0.00000000	    -57.74821342	     -0.68616818	      6.15157292	     89.63985149	     -1.60171528	     43.99645370	     13.40679271	     19.76083855	      0.00000000	      0.00000000	     89.32469992	      2.00740628	     35.79416939	     15.48656490	     23.94150834	      0.00000000	      0.00000000
